<svg width="321" height="326" viewBox="0 0 321 326" fill="none" xmlns="http://www.w3.org/2000/svg">
<path d="M62.383 105.907C62.383 105.907 49.1412 112.207 48.0221 125.414C46.9031 138.622 80.4007 174.83 80.4007 174.83L172.274 117.026L138.563 66.1603L62.383 105.907Z" fill="#C7DCF9"/>
<path d="M84.2959 116.842C84.2959 116.842 74.959 127.818 72.6505 139.422C70.342 151.025 71.3184 171.403 72.3447 178.991C88.244 191.831 146.614 176.237 146.614 176.237L199.096 105.337C199.096 105.337 188.195 87.6422 182.95 82.9433C177.705 78.2443 161.382 73.0626 143.533 81.6825C133.796 97.6902 84.2959 116.842 84.2959 116.842Z" fill="#E1ECFF"/>
<g style="mix-blend-mode:multiply">
<path d="M80.1774 122.47C80.1774 122.47 102.788 128.08 127.052 116.776C151.316 105.472 154.001 78.0623 154.001 78.0623L143.522 81.6873L84.2958 116.842L80.1774 122.47Z" fill="#E1ECFF"/>
</g>
<path d="M175.881 199.539C175.881 199.539 203.875 197.832 211.873 199.31C219.872 200.789 243.86 246.486 252.775 250.414C261.69 254.343 268.499 246.359 277.612 240.158C286.724 233.956 294.965 226.639 295.048 223.812C295.13 220.984 290.344 210.032 286.706 208.002C283.068 205.972 272.938 206.495 267.773 210.316C258.385 189.243 244.984 158.493 234.351 154.853C223.719 151.212 192.245 151.261 192.245 151.261L175.881 199.539Z" fill="#E1ECFF"/>
<g style="mix-blend-mode:multiply" opacity="0.51">
<path d="M203.925 176.93C203.925 176.93 226.877 177.887 233.743 185.941C240.609 193.996 256.58 245.037 270.624 245.324C271.982 262.114 243.477 270.135 243.477 270.135L168.974 197.798L203.925 176.93Z" fill="#E1ECFF"/>
</g>
<path d="M100.416 200.36C100.416 200.36 120.056 235.288 136.325 244.079C152.595 252.87 180.815 250.167 189.048 256.087C197.282 262.007 197.722 293.086 206.07 300.763C214.418 308.44 225.725 312.726 235.914 311.11C246.103 309.495 253.974 304.024 253.767 299.403C253.56 294.782 252.878 290.809 247.895 288.673C242.911 286.537 235.986 284.946 235.501 282.096C235.015 279.247 226.619 235.935 223.558 224.215C220.496 212.496 201.824 197.166 178.635 190.373C155.998 173.876 123.604 183.782 123.604 183.782L100.416 200.36Z" fill="#E1ECFF"/>
<g style="mix-blend-mode:multiply">
<path d="M106.073 209.677C106.073 209.677 125.888 209.354 143.097 200.367C138.49 182.549 127.675 177.925 127.675 177.925L100.416 200.36L106.073 209.677Z" fill="#E1ECFF"/>
</g>
<path d="M120.688 19.3716C104.664 12.1357 72.0641 11.5287 53.7304 37.6908C35.3968 63.8529 47.1038 88.9135 56.3188 100.327C65.9699 112.306 97.5245 129.48 128.603 109.255C159.681 89.0306 159.568 36.9359 120.688 19.3716Z" fill="#E1ECFF"/>
<path d="M119.05 34.7245C133.008 37.0792 143.231 55.7522 139.862 74.5179C136.493 93.2836 121.437 106.764 103.605 108.067C85.7734 109.37 67.2137 98.3861 65.7736 75.6036C64.3935 53.7094 88.7392 29.6138 119.05 34.7245Z" fill="#1C3177"/>
<g style="mix-blend-mode:multiply">
<path d="M89.1943 181.549C106.532 172.035 91.8645 153.971 109.416 148.454C133.166 150.213 139.591 148.574 139.591 148.574C139.591 148.574 97.253 191.135 89.1943 181.549Z" fill="#E1ECFF"/>
</g>
<path d="M100.686 129.813L135.642 204.451L177.713 200.605L214.617 173.604L223.75 137.97L190.222 56.1886L179.327 96.2675L146.143 126.518L100.686 129.813Z" fill="#FF97C9"/>
<path d="M89.1944 181.549C99.0159 180.083 103.612 173.313 106.413 170.258C107.839 168.699 107.449 167.443 106.397 163.293C105.346 159.144 107.72 154.654 111.237 152.564C113.6 157.811 116.126 158.666 118.006 158.286C119.885 157.906 121.07 146.442 127.279 146.124C133.488 145.806 139.015 153.677 140.12 157.719C141.224 161.76 138.007 173.719 133.535 182.261C129.062 190.802 122.656 201.436 106.909 205.69C91.1617 209.943 81.5367 202.405 75.612 192.454C73.6128 189.095 72.6525 184.333 72.3474 178.975C72.3474 178.975 76.2389 183.452 89.1944 181.549Z" fill="#E1ECFF"/>
<path d="M201.769 84.3551C201.769 84.3551 204.086 90.4091 202.968 92.9044C201.85 95.3996 200.24 97.5099 199.168 100.681C198.095 103.853 200.776 115.353 206.549 116.969C212.322 118.586 216.635 113.045 217.919 109.92C219.204 106.795 217.844 98.9073 215.266 93.518C212.687 88.1288 208.21 83.4866 201.769 84.3551Z" fill="#E1ECFF"/>
<path d="M203.071 7.10671L204.508 9.58233C204.594 9.73241 204.716 9.85915 204.862 9.95156C205.008 10.044 205.175 10.0992 205.348 10.1126L208.204 10.3219C208.403 10.3369 208.595 10.4076 208.756 10.5259C208.918 10.6442 209.043 10.8055 209.117 10.9914C209.192 11.1772 209.213 11.3803 209.178 11.5774C209.143 11.7745 209.053 11.9579 208.919 12.1066L207.009 14.2452C206.893 14.3741 206.81 14.5293 206.767 14.6975C206.725 14.8657 206.724 15.0417 206.765 15.2103L207.434 17.979C207.481 18.1731 207.473 18.3766 207.411 18.5664C207.348 18.7562 207.234 18.9247 207.081 19.053C206.928 19.1813 206.741 19.2641 206.544 19.2922C206.346 19.3202 206.144 19.2924 205.961 19.2118L203.339 18.0542C203.18 17.9835 203.007 17.9527 202.834 17.9644C202.661 17.976 202.494 18.0298 202.346 18.1211L199.903 19.6204C199.733 19.7259 199.536 19.7815 199.336 19.7809C199.135 19.7802 198.939 19.7233 198.769 19.6166C198.6 19.51 198.463 19.3579 198.376 19.1775C198.288 18.9972 198.253 18.796 198.275 18.5967L198.57 15.763C198.588 15.5905 198.563 15.4162 198.498 15.2552C198.433 15.0943 198.33 14.9516 198.198 14.8395L196.018 12.9767C195.866 12.8473 195.752 12.6776 195.691 12.487C195.63 12.2964 195.623 12.0924 195.672 11.8982C195.721 11.704 195.823 11.5274 195.967 11.3884C196.111 11.2495 196.292 11.1537 196.487 11.1121L199.289 10.5212C199.459 10.4848 199.616 10.4076 199.749 10.2964C199.882 10.1852 199.985 10.0433 200.05 9.88297L201.142 7.23678C201.218 7.04997 201.345 6.88823 201.508 6.77006C201.671 6.65188 201.865 6.58202 202.066 6.56845C202.267 6.55488 202.468 6.59816 202.646 6.69334C202.823 6.78852 202.971 6.93176 203.071 7.10671Z" fill="#FEC272"/>
<path d="M85.9727 287.249L87.178 289.326C87.25 289.452 87.3521 289.559 87.4751 289.636C87.5981 289.713 87.7383 289.759 87.8832 289.769L90.2792 289.953C90.4463 289.966 90.6063 290.026 90.7413 290.125C90.8763 290.224 90.9809 290.359 91.0433 290.515C91.1056 290.67 91.1232 290.84 91.0941 291.005C91.065 291.17 90.9903 291.324 90.8785 291.448L89.2747 293.237C89.1762 293.346 89.1061 293.477 89.0709 293.62C89.0356 293.763 89.0362 293.912 89.0726 294.054L89.632 296.388C89.6705 296.551 89.663 296.721 89.6103 296.88C89.5576 297.039 89.4617 297.18 89.3334 297.288C89.2051 297.395 89.0494 297.465 88.8838 297.489C88.7181 297.513 88.5491 297.491 88.3954 297.424L86.1994 296.451C86.0664 296.392 85.9213 296.367 85.7764 296.377C85.6315 296.387 85.4911 296.431 85.3671 296.507L83.3291 297.758C83.1861 297.846 83.0212 297.892 82.8532 297.891C82.6852 297.89 82.5208 297.842 82.3787 297.753C82.2365 297.663 82.1224 297.535 82.0493 297.384C81.9761 297.233 81.9468 297.064 81.9647 296.897L82.2056 294.509C82.2206 294.363 82.1999 294.216 82.1452 294.079C82.0905 293.943 82.0034 293.822 81.8915 293.727L80.0661 292.169C79.9386 292.061 79.844 291.919 79.793 291.759C79.742 291.6 79.7366 291.429 79.7775 291.266C79.8184 291.104 79.9039 290.956 80.0244 290.84C80.1448 290.723 80.2955 290.643 80.4592 290.607L82.8049 290.104C82.9475 290.074 83.0806 290.01 83.1927 289.916C83.3048 289.823 83.3925 289.704 83.4482 289.57L84.3636 287.35C84.4282 287.195 84.5348 287.061 84.6715 286.963C84.8082 286.866 84.9694 286.809 85.1369 286.798C85.3044 286.788 85.4715 286.825 85.6192 286.904C85.767 286.984 85.8894 287.103 85.9727 287.249Z" fill="#FEC272"/>
<g style="mix-blend-mode:soft-light" opacity="0.48">
<path d="M108.611 58.5407C118.312 55.706 125.364 50.6263 124.361 47.1949C123.358 43.7635 114.681 43.2797 104.98 46.1144C95.2789 48.949 88.2274 54.0287 89.23 57.4601C90.2327 60.8916 98.9098 61.3753 108.611 58.5407Z" fill="white"/>
</g>
<g style="mix-blend-mode:multiply">
<path d="M138.614 169.365C138.614 169.365 126.603 160.005 124.55 160.144C122.498 160.282 117.571 168.653 118.947 170.691C120.322 172.729 127.121 179.248 134.216 180.916C136.179 176.467 138.614 169.365 138.614 169.365Z" fill="#E1ECFF"/>
</g>
<g style="mix-blend-mode:multiply" opacity="0.5">
<path d="M146.143 126.518L177.713 200.605L214.618 173.604L179.327 96.2675L146.143 126.518Z" fill="#FF97C9"/>
</g>
<g style="mix-blend-mode:multiply">
<path d="M226.804 238.556C223.061 242.108 218.783 245.051 214.127 247.277C209.758 249.308 208.48 252.948 210.275 259.346C212.069 265.745 213.512 275.814 216.492 278.29C219.473 280.766 229.013 278.699 233.589 272.168C231.201 260.069 226.804 238.556 226.804 238.556Z" fill="#E1ECFF"/>
</g>
<g style="mix-blend-mode:multiply">
<path d="M248.45 170.623C248.45 170.623 243.013 173.442 243.808 177.299C244.603 181.157 251.594 199.59 253.965 201.134C256.336 202.678 262.812 199.219 262.812 199.219C254.643 180.251 248.45 170.623 248.45 170.623Z" fill="#E1ECFF"/>
</g>
<path d="M15.0838 231.599C10.0074 222.664 23.8539 211.802 36.2504 211.681C48.6468 211.561 54.6055 222.611 59.2659 226.569C68.9997 234.828 69.2972 243.531 63.2227 247.691C57.1483 251.851 21.8018 243.418 15.0838 231.599Z" fill="#99ADF9"/>
<path d="M254.547 71.7274C250.733 68.8172 253.439 53.746 261.712 49.703C269.985 45.6601 280.804 48.741 283.462 54.5349C286.12 60.3288 262.365 77.6878 254.547 71.7274Z" fill="#99ADF9"/>
<path d="M296.769 76.8467C295.101 79.6001 294.378 87.1696 298.361 88.2395C302.344 89.3093 304.77 81.408 303.131 77.4909C301.492 73.5737 297.883 75.007 296.769 76.8467Z" fill="#99ADF9"/>
<path opacity="0.44" d="M295.472 15.9043C292.66 17.4687 288.267 23.6738 291.196 26.5834C294.126 29.4929 300.148 23.8372 300.671 19.6255C301.195 15.4138 297.351 14.861 295.472 15.9043Z" fill="#99ADF9"/>
<path opacity="0.44" d="M38.1357 269.079C35.4879 267.248 27.9826 266.045 26.6627 269.957C25.3428 273.869 33.0785 276.76 37.078 275.389C41.0775 274.017 39.8985 270.303 38.1357 269.079Z" fill="#99ADF9"/>
<g style="mix-blend-mode:multiply" opacity="0.64">
<path d="M56.9064 224.184C52.4935 225.326 53.4833 229.274 55.16 232.799C56.8368 236.324 61.9482 237.016 65.2823 233.467C62.6029 228.129 56.9064 224.184 56.9064 224.184Z" fill="#99ADF9"/>
</g>
<g style="mix-blend-mode:multiply" opacity="0.64">
<path d="M30.8065 219.887C27.6293 220.459 25.3329 225.268 27.8431 228.873C30.3534 232.479 34.8395 234.925 37.2312 233.735C39.623 232.545 39.6617 226.979 37.6454 223.545C35.6291 220.112 33.8603 219.335 30.8065 219.887Z" fill="#99ADF9"/>
</g>
<g style="mix-blend-mode:multiply" opacity="0.64">
<path d="M273.267 52.1313C271.548 52.81 269.896 54.8308 270.19 56.873C270.485 58.9152 272.398 60.5869 274.327 60.2117C276.255 59.8364 277.7 56.5836 277.147 54.3538C276.595 52.124 274.579 51.6168 273.267 52.1313Z" fill="#99ADF9"/>
</g>
<g style="mix-blend-mode:multiply" opacity="0.64">
<path d="M254.934 57.3874C254.934 57.3874 257.497 59.6263 257.281 62.3783C257.064 65.1302 252.91 65.1572 252.91 65.1572C252.91 65.1572 253.213 60.47 254.934 57.3874Z" fill="#99ADF9"/>
</g>
</svg>
