<svg width="165" height="131" viewBox="0 0 165 131" fill="none" xmlns="http://www.w3.org/2000/svg">
<path d="M2.06736 81.6494V63.5888H24.8555V62.5326H2.06736V46.0562H26.2965V45H1V82.7056H26.5099V81.6494H2.06736ZM47.0566 55.5618L37.6105 67.8663L28.3778 55.5618H26.9902L36.9701 68.6584L26.0296 82.7056H27.3104L37.6105 69.4506L47.9639 82.7056H49.2981L38.3043 68.6584L48.3375 55.5618H47.0566ZM52.5002 92V75.1011H52.6069C53.2473 77.5656 54.5104 79.5459 56.396 81.0421C58.2817 82.5384 60.6833 83.2865 63.6007 83.2865C65.4864 83.2865 67.1586 82.9081 68.6173 82.1511C70.076 81.3942 71.2946 80.3644 72.273 79.0618C73.2514 77.7592 73.9986 76.2453 74.5145 74.5202C75.0304 72.7951 75.2883 70.982 75.2883 69.0809C75.2883 67.0389 75.0215 65.1554 74.4878 63.4303C73.9541 61.7052 73.1803 60.209 72.1663 58.9416C71.1523 57.6742 69.9248 56.6884 68.4839 55.9843C67.0429 55.2801 65.4152 54.9281 63.6007 54.9281C62.2131 54.9281 60.9234 55.1305 59.7315 55.5354C58.5396 55.9403 57.4812 56.5124 56.5561 57.2517C55.6311 57.991 54.8306 58.8624 54.1546 59.8657C53.4786 60.8691 52.9627 61.9693 52.6069 63.1663H52.5002V55.5618H51.4328V92H52.5002ZM63.6007 82.2831C60.2563 82.2831 57.5701 81.1478 55.5421 78.877C53.5141 76.6062 52.5002 73.3408 52.5002 69.0809C52.5002 67.3206 52.7492 65.6483 53.2473 64.064C53.7454 62.4798 54.4659 61.0891 55.4087 59.8921C56.3516 58.6951 57.5168 57.7446 58.9043 57.0404C60.2919 56.3363 61.8574 55.9843 63.6007 55.9843C65.3797 55.9843 66.9362 56.3363 68.2704 57.0404C69.6046 57.7446 70.7076 58.7039 71.5792 59.9185C72.4509 61.1332 73.1091 62.5238 73.5539 64.0904C73.9986 65.6571 74.221 67.3206 74.221 69.0809C74.221 70.6652 74.0164 72.2406 73.6072 73.8073C73.1981 75.374 72.5666 76.7822 71.7127 78.032C70.8588 79.2818 69.7647 80.3028 68.4305 81.0949C67.0963 81.8871 65.4864 82.2831 63.6007 82.2831ZM81.1588 82.7056V67.3382C81.1588 65.8595 81.3723 64.4161 81.7992 63.0079C82.2262 61.5996 82.8844 60.3586 83.7738 59.2848C84.6633 58.211 85.7929 57.3661 87.1627 56.75C88.5325 56.1339 90.1602 55.8787 92.0459 55.9843V54.9281C90.4093 54.8929 88.9772 55.0689 87.7498 55.4562C86.5223 55.8434 85.4638 56.3715 84.5744 57.0404C83.6849 57.7094 82.9733 58.4927 82.4396 59.3904C81.906 60.2882 81.5146 61.2476 81.2655 62.2685H81.1588V55.5618H80.0914V82.7056H81.1588ZM93.3801 69.3449H116.328C116.4 67.479 116.213 65.6835 115.768 63.9584C115.323 62.2333 114.612 60.7019 113.633 59.364C112.655 58.0262 111.392 56.9524 109.844 56.1427C108.296 55.333 106.455 54.9281 104.321 54.9281C102.791 54.9281 101.296 55.2449 99.8376 55.8787C98.3789 56.5124 97.0981 57.4365 95.9951 58.6511C94.8922 59.8657 94.0027 61.3532 93.3267 63.1135C92.6507 64.8738 92.3127 66.8805 92.3127 69.1337C92.3127 71.1405 92.544 73.0152 93.0065 74.7579C93.469 76.5006 94.1806 78.0144 95.1412 79.2994C96.1019 80.5845 97.3382 81.579 98.8503 82.2831C100.362 82.9873 102.186 83.3217 104.321 83.2865C107.451 83.2865 110.084 82.4152 112.219 80.6725C114.354 78.9298 115.617 76.4742 116.008 73.3056H114.941C114.478 76.2981 113.295 78.5425 111.392 80.0388C109.488 81.535 107.096 82.2831 104.214 82.2831C102.257 82.2831 100.603 81.9487 99.2506 81.2798C97.8986 80.6109 96.7956 79.6955 95.9417 78.5337C95.0879 77.3719 94.4563 76.0077 94.0472 74.441C93.638 72.8743 93.4157 71.1757 93.3801 69.3449ZM115.261 68.2888H93.3801C93.4868 66.3876 93.8426 64.6802 94.4474 63.1663C95.0523 61.6524 95.8439 60.3586 96.8223 59.2848C97.8007 58.211 98.9393 57.3925 100.238 56.8292C101.537 56.2659 102.933 55.9843 104.427 55.9843C106.206 55.9843 107.772 56.3099 109.124 56.9612C110.476 57.6126 111.605 58.5015 112.513 59.6281C113.42 60.7547 114.105 62.0661 114.567 63.5624C115.03 65.0586 115.261 66.6341 115.261 68.2888ZM138.476 63.5888H139.543C139.543 60.561 138.654 58.3607 136.875 56.9876C135.096 55.6146 132.677 54.9281 129.617 54.9281C127.909 54.9281 126.468 55.1393 125.294 55.5618C124.12 55.9843 123.159 56.53 122.412 57.1989C121.665 57.8678 121.131 58.6071 120.811 59.4169C120.491 60.2266 120.331 61.0011 120.331 61.7404C120.331 63.2191 120.598 64.3985 121.131 65.2787C121.665 66.1588 122.501 66.8453 123.64 67.3382C124.423 67.6903 125.312 68.0071 126.308 68.2888C127.304 68.5704 128.461 68.8697 129.777 69.1865C130.951 69.4682 132.107 69.7498 133.246 70.0315C134.385 70.3131 135.39 70.6916 136.261 71.1669C137.133 71.6421 137.845 72.2494 138.396 72.9888C138.947 73.7281 139.223 74.6962 139.223 75.8933C139.223 77.0551 138.947 78.0408 138.396 78.8506C137.845 79.6603 137.142 80.3204 136.288 80.8309C135.434 81.3414 134.482 81.711 133.433 81.9399C132.383 82.1687 131.36 82.2831 130.364 82.2831C127.126 82.2831 124.645 81.5702 122.919 80.1444C121.194 78.7185 120.331 76.4742 120.331 73.4112H119.264C119.264 76.8262 120.198 79.3258 122.065 80.9101C123.933 82.4944 126.7 83.2865 130.364 83.2865C131.538 83.2865 132.721 83.1545 133.913 82.8905C135.105 82.6264 136.172 82.1951 137.115 81.5966C138.058 80.9981 138.823 80.2236 139.41 79.273C139.997 78.3225 140.291 77.1607 140.291 75.7876C140.291 74.485 140.033 73.4288 139.517 72.6191C139.001 71.8094 138.325 71.1405 137.489 70.6124C136.653 70.0843 135.71 69.6706 134.66 69.3714C133.611 69.0721 132.552 68.7817 131.485 68.5C129.991 68.1127 128.683 67.7783 127.562 67.4966C126.442 67.215 125.401 66.8805 124.44 66.4933C123.515 66.106 122.777 65.5515 122.226 64.8298C121.674 64.108 121.398 63.0783 121.398 61.7404C121.398 61.494 121.469 61.0539 121.612 60.4202C121.754 59.7865 122.092 59.144 122.626 58.4927C123.159 57.8414 123.978 57.2605 125.081 56.75C126.184 56.2395 127.696 55.9843 129.617 55.9843C130.933 55.9843 132.134 56.1251 133.219 56.4067C134.304 56.6884 135.238 57.1373 136.021 57.7534C136.804 58.3695 137.409 59.1528 137.836 60.1034C138.263 61.0539 138.476 62.2157 138.476 63.5888ZM163.185 63.5888H164.253C164.253 60.561 163.363 58.3607 161.584 56.9876C159.805 55.6146 157.386 54.9281 154.326 54.9281C152.619 54.9281 151.178 55.1393 150.004 55.5618C148.829 55.9843 147.869 56.53 147.122 57.1989C146.375 57.8678 145.841 58.6071 145.521 59.4169C145.2 60.2266 145.04 61.0011 145.04 61.7404C145.04 63.2191 145.307 64.3985 145.841 65.2787C146.375 66.1588 147.211 66.8453 148.349 67.3382C149.132 67.6903 150.021 68.0071 151.018 68.2888C152.014 68.5704 153.17 68.8697 154.486 69.1865C155.661 69.4682 156.817 69.7498 157.955 70.0315C159.094 70.3131 160.099 70.6916 160.971 71.1669C161.842 71.6421 162.554 72.2494 163.105 72.9888C163.657 73.7281 163.933 74.6962 163.933 75.8933C163.933 77.0551 163.657 78.0408 163.105 78.8506C162.554 79.6603 161.851 80.3204 160.997 80.8309C160.144 81.3414 159.192 81.711 158.142 81.9399C157.093 82.1687 156.07 82.2831 155.074 82.2831C151.836 82.2831 149.354 81.5702 147.629 80.1444C145.903 78.7185 145.04 76.4742 145.04 73.4112H143.973C143.973 76.8262 144.907 79.3258 146.775 80.9101C148.643 82.4944 151.409 83.2865 155.074 83.2865C156.248 83.2865 157.431 83.1545 158.623 82.8905C159.814 82.6264 160.882 82.1951 161.825 81.5966C162.767 80.9981 163.532 80.2236 164.119 79.273C164.706 78.3225 165 77.1607 165 75.7876C165 74.485 164.742 73.4288 164.226 72.6191C163.71 71.8094 163.034 71.1405 162.198 70.6124C161.362 70.0843 160.419 69.6706 159.37 69.3714C158.32 69.0721 157.262 68.7817 156.194 68.5C154.7 68.1127 153.392 67.7783 152.272 67.4966C151.151 67.215 150.11 66.8805 149.15 66.4933C148.225 66.106 147.486 65.5515 146.935 64.8298C146.383 64.108 146.108 63.0783 146.108 61.7404C146.108 61.494 146.179 61.0539 146.321 60.4202C146.463 59.7865 146.801 59.144 147.335 58.4927C147.869 57.8414 148.687 57.2605 149.79 56.75C150.893 56.2395 152.405 55.9843 154.326 55.9843C155.643 55.9843 156.844 56.1251 157.929 56.4067C159.014 56.6884 159.948 57.1373 160.731 57.7534C161.513 58.3695 162.118 59.1528 162.545 60.1034C162.972 61.0539 163.185 62.2157 163.185 63.5888Z" fill="#727272"/>
</svg>
