<svg width="256" height="108" viewBox="0 0 256 108" fill="none" xmlns="http://www.w3.org/2000/svg">
<g clip-path="url(#clip0_2_15194)">
<path d="M152.984 37.2135C147.387 37.2135 143.219 39.9617 143.219 46.5756C143.219 51.5588 145.966 55.0189 152.682 55.0189C158.375 55.0189 162.242 51.664 162.242 46.3699C162.242 40.3696 158.782 37.2135 152.984 37.2135ZM141.794 83.9154C140.469 85.5402 139.149 87.2679 139.149 89.3054C139.149 93.3722 144.335 94.5961 151.459 94.5961C157.359 94.5961 165.397 94.1822 165.397 88.6964C165.397 85.435 161.53 85.2339 156.644 84.9277L141.794 83.9154ZM171.907 37.5209C173.735 39.8612 175.671 43.1178 175.671 47.7972C175.671 59.0892 166.82 65.7008 154.004 65.7008C150.745 65.7008 147.795 65.2952 145.966 64.7867L142.607 70.1779L152.576 70.7869C170.178 71.9091 180.551 72.4187 180.551 85.9435C180.551 97.6458 170.279 104.255 152.576 104.255C134.163 104.255 127.143 99.5758 127.143 91.5393C127.143 86.9605 129.178 84.5244 132.739 81.1613C129.381 79.7422 128.263 77.1997 128.263 74.4515C128.263 72.2118 129.381 70.1779 131.215 68.2432C133.045 66.3133 135.079 64.3775 137.521 62.1402C132.537 59.6982 128.772 54.4076 128.772 46.8784C128.772 35.1807 136.504 27.1465 152.066 27.1465C156.442 27.1465 159.088 27.5486 161.428 28.1635H181.268V36.8079L171.907 37.5209Z" fill="#2F2707"/>
<path d="M199.166 19.0344C193.365 19.0344 190.009 15.6748 190.009 9.87331C190.009 4.07999 193.365 0.923828 199.166 0.923828C205.067 0.923828 208.424 4.07999 208.424 9.87331C208.424 15.6748 205.067 19.0344 199.166 19.0344ZM186.04 80.1716V72.1386L191.23 71.429C192.655 71.2233 192.857 70.9194 192.857 69.3904V39.4805C192.857 38.3641 192.553 37.6487 191.532 37.346L186.04 35.4114L187.158 27.1738H208.219V69.3904C208.219 71.0211 208.317 71.2233 209.848 71.429L215.037 72.1386V80.1716H186.04Z" fill="#2F2707"/>
<path d="M255.267 76.2268C250.891 78.3613 244.482 80.2947 238.681 80.2947C226.575 80.2947 221.999 75.4167 221.999 63.9154V37.2622C221.999 36.6532 221.999 36.2452 221.182 36.2452H214.062V27.1905C223.017 26.1712 226.575 21.6941 227.694 10.6055H237.36V25.056C237.36 25.7656 237.36 26.073 238.175 26.073H252.518V36.2452H237.36V60.5582C237.36 66.5608 238.786 68.8987 244.277 68.8987C247.129 68.8987 250.076 68.1879 252.518 67.2726L255.267 76.2268Z" fill="#2F2707"/>
<path d="M104.529 49.5298L58.0126 3.01724C55.3358 0.338004 50.9908 0.338004 48.3104 3.01724L38.6513 12.6763L50.9043 24.9292C53.7518 23.9672 57.0167 24.6124 59.2868 26.8825C61.5674 29.1666 62.208 32.4596 61.2226 35.3165L73.0313 47.1252C75.8882 46.141 79.1847 46.778 81.4665 49.0633C84.6554 52.2511 84.6554 57.4178 81.4665 60.6079C78.2764 63.798 73.1096 63.798 69.9184 60.6079C67.5197 58.2069 66.9271 54.6837 68.1416 51.7285L57.1289 40.7159L57.1278 69.6965C57.9051 70.0822 58.6392 70.5954 59.2868 71.2407C62.4757 74.4284 62.4757 79.5951 59.2868 82.7875C56.0967 85.9764 50.9276 85.9764 47.7423 82.7875C44.5534 79.5951 44.5534 74.4284 47.7423 71.2407C48.5301 70.4539 49.4419 69.8589 50.4145 69.4592V40.2085C49.4419 39.8111 48.5313 39.2196 47.7423 38.4271C45.326 36.0144 44.7451 32.4689 45.983 29.5021L33.9054 17.4222L2.01061 49.3147C-0.669795 51.9962 -0.669795 56.3412 2.01061 59.0205L48.5266 105.534C51.2047 108.213 55.5485 108.213 58.2301 105.534L104.529 59.2367C107.208 56.5563 107.208 52.209 104.529 49.5298Z" fill="#DE4C36"/>
</g>
<defs>
<clipPath id="clip0_2_15194">
<rect width="256" height="108" fill="white"/>
</clipPath>
</defs>
</svg>
