<svg width="228" height="210" viewBox="0 0 228 210" fill="none" xmlns="http://www.w3.org/2000/svg">
<path fill-rule="evenodd" clip-rule="evenodd" d="M118.053 142.114L114.27 140.821C114.27 140.821 114.732 121.535 107.81 120.151C103.196 114.798 108.549 -106.862 125.159 119.412C125.159 119.412 119.438 122.273 118.423 127.164C117.315 131.963 118.053 142.114 118.053 142.114Z" fill="white"/>
<path fill-rule="evenodd" clip-rule="evenodd" d="M118.053 142.114L114.27 140.821C114.27 140.821 114.732 121.535 107.81 120.151C103.196 114.798 108.549 -106.862 125.159 119.412C125.159 119.412 119.438 122.273 118.423 127.164C117.315 131.963 118.053 142.114 118.053 142.114Z" fill="#A6A385"/>
<path fill-rule="evenodd" clip-rule="evenodd" d="M120.084 123.473C120.084 123.473 153.213 101.695 145.461 56.384C137.987 23.4398 120.36 12.643 118.423 8.48997C116.3 5.53712 114.27 0.369629 114.27 0.369629L115.655 92.0047C115.655 92.0971 112.793 120.058 120.084 123.473Z" fill="white"/>
<path fill-rule="evenodd" clip-rule="evenodd" d="M120.084 123.473C120.084 123.473 153.213 101.695 145.461 56.384C137.987 23.4398 120.36 12.643 118.423 8.48997C116.3 5.53712 114.27 0.369629 114.27 0.369629L115.655 92.0047C115.655 92.0971 112.793 120.058 120.084 123.473Z" fill="#499D4A"/>
<path fill-rule="evenodd" clip-rule="evenodd" d="M112.332 124.672C112.332 124.672 81.2331 103.447 83.079 66.0739C84.8318 28.6996 106.795 10.3358 111.04 7.01345C113.809 4.0606 113.901 2.95285 114.086 0C116.023 4.15298 115.655 62.1057 115.931 68.9344C116.761 95.2346 114.454 119.69 112.332 124.672Z" fill="white"/>
<path fill-rule="evenodd" clip-rule="evenodd" d="M112.332 124.672C112.332 124.672 81.2331 103.447 83.079 66.0739C84.8318 28.6996 106.795 10.3358 111.04 7.01345C113.809 4.0606 113.901 2.95285 114.086 0C116.023 4.15298 115.655 62.1057 115.931 68.9344C116.761 95.2346 114.454 119.69 112.332 124.672Z" fill="#58AA50"/>
<path fill-rule="evenodd" clip-rule="evenodd" d="M209.496 161.059C209.252 161.115 209.008 161.727 209.008 162.06C208.959 164.285 208.91 170.181 208.91 174.186C208.91 174.297 209.056 174.519 209.203 174.519C209.936 174.575 211.694 174.631 213.208 174.631C215.308 174.631 216.53 174.297 217.214 173.964C218.972 172.962 219.802 170.793 219.802 168.401C219.802 163.006 216.481 160.948 211.547 160.948C211.206 160.892 210.229 160.892 209.496 161.059ZM222.098 185.922C222.098 180.416 218.532 177.356 212.085 177.356C211.792 177.356 209.74 177.3 209.252 177.412C209.105 177.467 208.91 177.579 208.91 177.746C208.91 181.695 208.861 187.98 209.008 190.427C209.105 191.484 209.789 192.986 210.62 193.431C211.498 193.987 213.501 194.098 214.869 194.098C218.728 194.098 222.098 191.651 222.098 185.922ZM199.532 158C200.02 158 201.486 158.167 205.247 158.167C208.812 158.167 211.645 158.056 215.113 158.056C219.362 158.056 225.224 159.78 225.224 167.01C225.224 170.57 223.026 173.407 220.144 174.798C219.998 174.853 219.998 174.964 220.144 175.02C224.247 176.188 227.862 179.081 227.862 184.532C227.862 189.871 224.931 193.264 220.681 195.378C218.093 196.657 214.869 197.102 211.596 197.102C209.105 197.102 202.414 196.768 198.702 196.88C198.311 196.713 199.043 194.71 199.385 194.377C200.265 194.321 200.948 194.265 201.876 193.932C203.195 193.542 203.341 193.097 203.537 190.817C203.635 188.87 203.635 181.973 203.635 177.078C203.635 170.348 203.684 165.787 203.635 163.562C203.586 161.838 203.049 161.282 201.974 160.948C201.144 160.781 199.776 160.558 198.653 160.392C198.408 160.113 199.239 158.222 199.532 158ZM171.348 192.597C172.521 193.653 174.817 194.098 176.868 194.098C179.506 194.098 182.143 193.542 184.683 190.928C187.272 188.258 189.079 184.142 189.079 177.579C189.079 171.293 186.979 166.176 182.681 163.173C180.238 161.448 177.112 160.725 173.498 160.725C172.423 160.725 171.397 160.781 170.763 161.115C170.616 161.226 170.274 161.727 170.274 162.005C170.176 163.117 170.176 171.683 170.176 176.689C170.176 181.862 170.176 189.092 170.274 189.927C170.274 190.761 170.616 192.04 171.348 192.597ZM160.261 158C161.189 158 164.754 158.167 166.464 158.167C169.541 158.167 171.739 158 177.552 158C182.436 158 186.539 159.502 189.47 162.338C193.035 165.843 194.892 170.682 194.892 176.578C194.892 184.976 191.521 189.816 188.151 192.597C184.781 195.434 180.385 197.102 174.133 197.102C170.811 197.102 165.097 196.991 160.359 196.935H160.31C160.066 196.435 160.7 194.488 161.091 194.432C162.361 194.265 162.703 194.21 163.338 193.932C164.364 193.487 164.559 192.875 164.706 190.817C164.852 186.979 164.803 182.362 164.803 177.134C164.803 173.407 164.852 166.12 164.754 163.784C164.608 161.838 163.876 161.337 162.41 161.003C161.677 160.837 160.7 160.614 159.333 160.447C159.137 160.058 160.017 158.334 160.261 158Z" fill="#8E714E"/>
<path fill-rule="evenodd" clip-rule="evenodd" d="M100.234 191.697C99.0131 191.529 98.1338 191.307 97.059 190.751C96.9127 190.64 96.6682 190.084 96.6682 189.861C96.5704 187.914 96.5704 182.352 96.5704 178.625C96.5704 175.622 96.1313 173.008 95.0075 171.172C93.6886 169.058 91.7838 167.835 89.3416 167.835C87.1924 167.835 84.3105 169.504 81.9172 171.84C81.8683 171.895 81.4776 172.285 81.5265 171.673C81.5265 171.061 81.6243 169.837 81.6732 169.003C81.7221 168.224 81.3314 167.835 81.3314 167.835C79.768 168.725 75.3721 169.893 73.7603 170.059C72.5881 170.338 72.2951 171.617 73.5162 172.062H73.5651C74.8836 172.507 75.7628 173.008 76.4465 173.508C76.935 173.953 76.8861 174.565 76.8861 175.066C76.935 179.237 76.935 185.634 76.7888 189.138C76.7399 190.529 76.3981 191.029 75.5188 191.252L75.6161 191.196C74.9325 191.363 74.395 191.529 73.5647 191.641C73.2717 191.974 73.2717 193.755 73.5647 194.144C74.1021 194.144 76.935 193.977 79.2799 193.977C82.5036 193.977 84.1643 194.144 84.9947 194.144C85.3365 193.699 85.4343 192.03 85.2387 191.641C84.3105 191.585 83.6269 191.474 82.9921 191.252C82.1128 191.029 81.8683 190.529 81.8194 189.36C81.7221 186.412 81.7221 180.183 81.7221 175.956C81.7221 174.787 82.015 174.231 82.308 173.897C83.4313 172.785 85.2387 172.006 86.8505 172.006C88.4135 172.006 89.4394 172.563 90.2209 173.286C91.2953 174.287 91.6371 175.733 91.7838 176.79C92.0279 179.182 91.9305 183.91 91.9305 188.026C91.9305 190.25 91.7838 190.807 91.0513 191.085C90.7094 191.252 89.8302 191.474 88.8042 191.585C88.4624 191.974 88.5602 193.699 88.8042 194.088C90.2209 194.088 91.8816 193.921 94.3238 193.921C97.3519 193.921 99.306 194.088 100.087 194.088C100.332 193.755 100.429 192.141 100.234 191.697H100.234ZM113.764 170.449C111.175 170.449 109.563 172.73 109.563 176.289C109.563 179.905 110.98 184.076 114.985 184.076C115.669 184.076 116.939 183.743 117.525 182.964C118.453 181.963 119.088 179.96 119.088 177.847C119.088 173.23 117.085 170.449 113.764 170.449ZM113.422 195.034C112.445 195.034 111.761 195.367 111.322 195.646C109.27 197.147 108.342 198.594 108.342 200.318C108.342 201.931 108.879 203.21 110.052 204.323C111.468 205.713 113.422 206.381 115.913 206.381C120.895 206.381 123.093 203.321 123.093 200.318C123.093 198.204 122.165 196.814 120.26 196.035C118.893 195.367 116.401 195.034 113.422 195.034ZM113.764 209.496C110.784 209.496 108.635 208.772 106.779 207.159C104.972 205.602 104.19 203.266 104.19 201.653C104.19 201.208 104.288 199.984 105.167 198.872C105.704 198.204 106.877 196.925 109.661 194.756C109.758 194.7 109.807 194.645 109.807 194.533C109.807 194.422 109.71 194.311 109.612 194.255C107.316 193.254 106.633 191.641 106.437 190.751V190.64C106.389 190.306 106.291 189.972 106.73 189.638C107.072 189.36 107.561 189.027 108.098 188.638C108.928 188.081 109.807 187.469 110.345 186.969C110.443 186.857 110.443 186.746 110.443 186.635C110.443 186.524 110.345 186.412 110.247 186.357C106.828 185.077 105.119 182.185 105.119 177.847C105.119 175.01 106.242 172.451 108.244 170.839C109.612 169.615 113.031 168.113 115.278 168.113H115.425C117.72 168.168 118.99 168.725 120.797 169.448C121.774 169.837 122.703 170.004 123.973 170.004C125.877 170.004 126.708 169.337 127.391 168.558C127.44 168.669 127.538 168.947 127.587 169.67C127.636 170.394 127.44 171.45 126.952 172.229C126.561 172.841 125.682 173.286 124.803 173.286H124.558C123.679 173.175 123.288 173.063 123.288 173.063L123.093 173.175C123.044 173.286 123.093 173.397 123.142 173.564L123.191 173.675C123.288 174.176 123.484 175.677 123.484 176.067C123.484 180.628 121.872 182.63 120.163 184.132C118.502 185.522 116.597 186.412 114.448 186.635C114.399 186.635 114.204 186.635 113.764 186.691C113.52 186.691 113.178 186.746 113.129 186.746H113.08C112.689 186.857 111.713 187.414 111.713 188.359C111.713 189.193 112.152 190.195 114.252 190.362C114.692 190.417 115.131 190.417 115.62 190.473C118.404 190.695 121.872 190.974 123.484 191.585C125.731 192.531 127.147 194.811 127.147 197.537C127.147 201.653 124.558 205.491 120.26 207.882C118.16 208.939 116.06 209.496 113.764 209.496ZM141.605 170.727C140.579 170.727 139.651 171.005 138.968 171.561C137.063 172.896 136.086 175.566 136.086 179.46C136.086 186.746 139.309 191.864 143.901 191.864C145.269 191.864 146.343 191.419 147.271 190.529C148.687 189.193 149.42 186.524 149.42 182.797C149.42 175.566 146.245 170.727 141.605 170.727ZM142.485 194.533C134.181 194.533 131.201 187.581 131.201 181.073C131.201 176.512 132.813 173.008 136.037 170.504C138.333 168.892 141.068 168.002 143.51 168.002C149.86 168.002 154.305 173.175 154.305 180.628C154.305 185.689 152.546 189.694 149.176 192.141C147.564 193.365 144.78 194.533 142.484 194.533H142.485ZM55.4438 170.727C54.4178 170.727 53.4901 171.005 52.806 171.561C50.9012 172.896 49.9242 175.566 49.9242 179.46C49.9242 186.746 53.1478 191.864 57.7393 191.864C59.1071 191.864 60.1815 191.419 61.1096 190.529C62.5259 189.193 63.2589 186.524 63.2589 182.797C63.2589 175.566 60.1326 170.727 55.4438 170.727ZM56.323 194.533C48.0194 194.533 45.0398 187.581 45.0398 181.073C45.0398 176.512 46.6516 173.008 49.8753 170.504C52.1712 168.892 54.9064 168.002 57.3486 168.002C63.6985 168.002 68.1433 173.175 68.1433 180.628C68.1433 185.689 66.3848 189.694 63.0144 192.141C61.4515 193.365 58.6674 194.533 56.323 194.533ZM0.493851 193.977C0.396053 193.81 0.298256 193.31 0.347155 192.698C0.347155 192.253 0.444952 191.974 0.493851 191.864C1.51936 191.697 2.05679 191.529 2.64266 191.363C3.61972 191.085 4.01045 190.473 4.05935 189.083C4.20605 185.745 4.20605 179.404 4.15715 175.01V174.899C4.15715 174.398 4.15715 173.786 3.61972 173.341C2.83825 172.785 1.91009 172.285 0.68899 171.895C0.249357 171.728 -0.043579 171.45 0.00531985 171.116C0.00531985 170.783 0.298256 170.394 0.933483 170.282C2.54532 170.115 6.74558 168.947 8.40632 168.113C8.50411 168.224 8.65081 168.558 8.65081 169.003L8.60192 169.615C8.55302 170.227 8.50412 170.95 8.50412 171.673C8.50412 171.895 8.69971 172.062 8.89485 172.062C8.99265 172.062 9.09045 172.006 9.18824 171.951C12.3141 169.17 15.147 168.168 16.6122 168.168C19.0059 168.168 20.8618 169.448 22.2785 172.118C22.3758 172.285 22.4736 172.34 22.6203 172.34C22.7181 172.34 22.8644 172.285 22.9133 172.173C25.7951 169.67 28.6769 168.168 30.5817 168.168C35.1243 168.168 37.811 172.006 37.811 178.514C37.811 180.35 37.811 182.741 37.7621 184.911C37.7621 186.857 37.7132 188.638 37.7132 189.917C37.7132 190.195 38.055 191.085 38.5924 191.252C39.2761 191.641 40.2043 191.808 41.4254 192.03H41.4743C41.5721 192.419 41.3765 193.866 41.1813 194.144C40.8879 194.144 40.4483 194.144 39.9602 194.088C39.0321 194.033 37.7132 193.977 36.248 193.977C33.2195 193.977 31.6566 194.033 30.1421 194.144C30.0447 193.699 29.9958 192.364 30.1421 192.03C31.0213 191.864 31.461 191.697 31.9984 191.529C32.9755 191.196 33.2195 190.695 33.2684 189.249C33.2684 188.193 33.4635 179.182 33.1706 177.012C32.8777 174.787 31.4121 172.173 28.1884 172.173C26.9673 172.173 25.0625 172.73 23.2062 174.342C23.1089 174.454 23.0111 174.732 23.0111 174.899V174.954C23.2062 176.122 23.2062 177.458 23.2062 179.515V183.131C23.2062 185.634 23.1573 187.97 23.2062 189.75C23.2062 190.974 23.8414 191.252 24.3789 191.474C24.6718 191.529 24.8669 191.585 25.1114 191.641C25.5511 191.752 25.9907 191.864 26.6744 192.03C26.7722 192.253 26.7722 192.976 26.6255 193.588C26.5766 193.921 26.4788 194.088 26.4303 194.144C24.7696 194.088 23.06 194.033 20.5689 194.033C19.8363 194.033 18.5663 194.088 17.4914 194.088C16.6122 194.088 15.7818 194.144 15.2937 194.144C15.2448 194.033 15.147 193.643 15.147 193.031C15.147 192.531 15.2448 192.141 15.3426 192.03C15.5867 191.974 15.7818 191.919 16.0263 191.919C16.6122 191.808 17.1007 191.697 17.5892 191.585C18.4196 191.307 18.7125 190.807 18.7614 189.583C18.9081 186.802 19.0544 178.848 18.7125 176.846C18.1267 173.62 16.5148 172.006 13.9259 172.006C12.4119 172.006 10.5067 172.841 8.94375 174.176C8.69971 174.398 8.50412 174.954 8.50412 175.455V178.737C8.50412 182.741 8.50412 187.748 8.55302 189.917C8.60192 190.584 8.79705 191.363 9.92081 191.641C10.1649 191.697 10.5556 191.808 11.0441 191.864L11.9234 192.03C12.0212 192.364 11.9723 193.699 11.7767 194.144C11.2881 194.144 10.7023 194.088 10.0182 194.088C8.99265 194.033 7.67375 193.977 6.20862 193.977C4.49898 193.977 3.27789 194.033 2.30082 194.088C1.61715 193.977 1.07972 193.977 0.493851 193.977Z" fill="#FFE6DA"/>
</svg>
