<svg width="218" height="252" viewBox="0 0 218 252" fill="none" xmlns="http://www.w3.org/2000/svg">
<g clip-path="url(#clip0_103_1220)">
<path d="M179.24 62.8148C176.978 62.0371 174.635 61.3012 172.222 60.6052C172.619 58.988 172.983 57.3917 173.306 55.8226C178.619 30.0571 175.145 9.3003 163.285 2.46626C151.912 -4.08668 133.313 2.74581 114.529 19.0799C112.723 20.6506 110.911 22.3135 109.101 24.0563C107.894 22.9032 106.69 21.7889 105.489 20.7231C85.8024 3.25761 66.0699 -4.10257 54.2212 2.75124C42.8595 9.32317 39.4948 28.8366 44.2766 53.2547C44.7383 55.6132 45.2781 58.0218 45.8885 60.4707C43.0958 61.2628 40.3997 62.1072 37.82 63.0056C14.74 71.0459 0 83.6469 0 96.7175C0 110.217 15.8234 123.757 39.863 131.967C41.7602 132.615 43.7287 133.228 45.7573 133.809C45.0988 136.458 44.5261 139.053 44.0453 141.585C39.4859 165.579 43.0465 184.631 54.378 191.162C66.0823 197.906 85.7255 190.974 104.853 174.268C106.365 172.947 107.882 171.546 109.402 170.079C111.372 171.974 113.339 173.768 115.296 175.451C133.823 191.381 152.121 197.814 163.442 191.265C175.135 184.502 178.935 164.035 174.002 139.134C173.625 137.232 173.186 135.289 172.694 133.312C174.073 132.904 175.428 132.484 176.748 132.046C201.74 123.773 218 110.397 218 96.7175C218 83.5996 202.785 70.9136 179.24 62.8148ZM173.819 123.213C172.627 123.608 171.404 123.989 170.158 124.358C167.399 115.631 163.675 106.351 159.118 96.7629C163.467 87.4032 167.046 78.2416 169.728 69.571C171.958 70.2157 174.123 70.8958 176.208 71.6135C196.382 78.5526 208.687 88.8122 208.687 96.7175C208.687 105.138 195.398 116.069 173.819 123.213ZM164.866 140.941C167.047 151.952 167.359 161.907 165.914 169.69C164.615 176.683 162.004 181.345 158.776 183.212C151.906 187.186 137.214 182.021 121.369 168.397C119.553 166.835 117.723 165.168 115.888 163.403C122.03 156.69 128.169 148.886 134.161 140.219C144.7 139.285 154.656 137.757 163.686 135.672C164.13 137.464 164.525 139.222 164.866 140.941ZM74.3211 182.526C67.6089 184.894 62.2629 184.962 59.0313 183.1C52.1549 179.137 49.2962 163.84 53.1956 143.32C53.6422 140.97 54.1739 138.556 54.7866 136.089C63.7169 138.062 73.6005 139.482 84.1645 140.337C90.1965 148.818 96.513 156.613 102.878 163.439C101.488 164.78 100.102 166.057 98.7248 167.261C90.2667 174.648 81.7908 179.89 74.3211 182.526ZM42.875 123.162C32.2451 119.532 23.4665 114.813 17.4493 109.665C12.0423 105.038 9.3125 100.445 9.3125 96.7175C9.3125 88.7858 21.1472 78.6689 40.8855 71.7926C43.2805 70.9582 45.7876 70.1719 48.3894 69.4333C51.1173 78.2998 54.6958 87.5699 59.0142 96.9439C54.6399 106.457 51.0106 115.875 48.2559 124.845C46.4011 124.313 44.6041 123.752 42.875 123.162ZM53.416 51.4677C49.3191 30.5468 52.04 14.7649 58.887 10.8047C66.1801 6.58584 82.3073 12.601 99.3049 27.6816C100.391 28.6454 101.482 29.6543 102.576 30.6981C96.2421 37.4937 89.9835 45.2304 84.005 53.6611C73.7523 54.6106 63.938 56.1359 54.9146 58.1784C54.3473 55.8982 53.8448 53.658 53.416 51.4677ZM147.451 74.6688C145.294 70.9458 143.08 67.3109 140.822 63.7752C147.778 64.6538 154.442 65.8201 160.7 67.2473C158.821 73.264 156.479 79.5549 153.723 86.0039C151.745 82.2527 149.654 78.4704 147.451 74.6688ZM109.104 37.3483C113.4 41.9983 117.701 47.1899 121.932 52.8228C117.669 52.6216 113.352 52.5169 109 52.5169C104.689 52.5169 100.404 52.6192 96.1668 52.817C100.402 47.2365 104.741 42.0518 109.104 37.3483ZM70.511 74.7331C68.3562 78.4665 66.3035 82.2282 64.3571 85.9969C61.6451 79.5704 59.325 73.2508 57.4299 67.1488C63.6497 65.7581 70.2824 64.6209 77.1938 63.759C74.9043 67.3272 72.6716 70.9889 70.511 74.7323V74.7331ZM77.3928 130.34C70.2522 129.544 63.5197 128.465 57.3014 127.113C59.2269 120.902 61.5982 114.447 64.3676 107.882C66.319 111.648 68.3799 115.412 70.5479 119.153H70.5482C72.7566 122.965 75.0444 126.699 77.3928 130.34ZM109.362 156.743C104.948 151.984 100.545 146.72 96.2452 141.058C100.419 141.222 104.675 141.306 109 141.306C113.443 141.306 117.836 141.206 122.159 141.014C117.914 146.777 113.628 152.049 109.362 156.743ZM153.812 107.548C156.725 114.184 159.182 120.604 161.132 126.71C154.811 128.15 147.987 129.311 140.797 130.173C143.06 126.59 145.293 122.892 147.489 119.089C149.709 115.241 151.818 111.388 153.812 107.548ZM139.422 114.44C136.014 120.344 132.515 125.98 128.964 131.3C122.495 131.762 115.812 132 109 132C102.216 132 95.617 131.79 89.2625 131.378C85.5676 125.988 81.993 120.335 78.607 114.491H78.6078C75.2307 108.663 72.1225 102.785 69.3061 96.9408C72.1217 91.0827 75.2218 85.1986 78.5794 79.3808L78.5787 79.3819C81.9453 73.5486 85.4884 67.9235 89.1492 62.5675C95.6325 62.0778 102.281 61.8223 109 61.8223H109C115.749 61.8223 122.406 62.0797 128.887 62.5737C132.492 67.8906 136.011 73.4974 139.391 79.3315C142.809 85.2312 145.949 91.0761 148.789 96.8086C145.958 102.64 142.825 108.543 139.422 114.44ZM158.633 10.5278C165.933 14.7343 168.772 31.6988 164.185 53.9445C163.893 55.3639 163.563 56.8098 163.206 58.275C154.161 56.1898 144.34 54.6381 134.057 53.6742C128.067 45.1509 121.86 37.4022 115.629 30.6938C117.304 29.0836 118.977 27.5482 120.643 26.0992C136.737 12.1043 151.78 6.57886 158.633 10.5278ZM109 77.2665C119.751 77.2665 128.467 85.9748 128.467 96.7175C128.467 107.46 119.751 116.168 109 116.168C98.249 116.168 89.5333 107.46 89.5333 96.7175C89.5333 85.9748 98.249 77.2665 109 77.2665Z" fill="#00D8FF"/>
</g>
<path d="M24.5312 230.059C24.0365 230.059 23.6784 230 23.457 229.883C23.2357 229.753 23.125 229.557 23.125 229.297V206.387C23.125 205.866 23.5938 205.605 24.5312 205.605H25.2539C25.6185 205.605 25.9049 205.658 26.1133 205.762C26.3346 205.866 26.5299 206.035 26.6992 206.27L37.793 223.008L38.8281 224.961V206.387C38.8281 205.866 39.2839 205.605 40.1953 205.605H40.4688C41.3802 205.605 41.8359 205.866 41.8359 206.387V229.297C41.8359 229.557 41.7253 229.753 41.5039 229.883C41.2826 230 40.9375 230.059 40.4688 230.059H39.7656C39.4401 230.059 39.1797 230.02 38.9844 229.941C38.7891 229.863 38.6393 229.74 38.5352 229.57L27.0898 212.305L26.1523 210.508V229.297C26.1523 229.805 25.6901 230.059 24.7656 230.059H24.5312ZM59.675 230.059C59.1542 230.059 58.7766 230.013 58.5422 229.922C58.3078 229.818 58.1906 229.668 58.1906 229.473C58.1906 229.382 58.2232 229.225 58.2883 229.004L66.5109 206.172C66.6411 205.794 67.1034 205.605 67.8977 205.605H68.9133C69.7076 205.605 70.1698 205.794 70.3 206.172L78.5227 229.023C78.5878 229.167 78.6203 229.316 78.6203 229.473C78.6203 229.863 78.132 230.059 77.1555 230.059H76.8625C76.0552 230.059 75.5865 229.876 75.4562 229.512L73.425 223.809H63.2297L61.2375 229.512C61.1203 229.876 60.6581 230.059 59.8508 230.059H59.675ZM72.4875 221.172L68.8547 210.84C68.7505 210.553 68.6659 210.228 68.6008 209.863C68.5357 209.499 68.4771 209.147 68.425 208.809H68.3469C68.1906 209.681 68.0148 210.358 67.8195 210.84L64.1867 221.172H72.4875ZM99.8969 230.059C99.4151 230.059 99.0635 230 98.8422 229.883C98.6208 229.753 98.5102 229.557 98.5102 229.297V208.34H91.8305C91.5831 208.34 91.4073 208.255 91.3031 208.086C91.199 207.917 91.1469 207.656 91.1469 207.305V206.738C91.1469 206.374 91.199 206.113 91.3031 205.957C91.4073 205.788 91.5831 205.703 91.8305 205.703H108.12C108.367 205.703 108.543 205.788 108.647 205.957C108.751 206.113 108.803 206.374 108.803 206.738V207.305C108.803 207.656 108.751 207.917 108.647 208.086C108.543 208.255 108.367 208.34 108.12 208.34H101.577V229.297C101.577 229.805 101.108 230.059 100.17 230.059H99.8969ZM127.072 230.059C126.134 230.059 125.666 229.805 125.666 229.297V206.387C125.666 205.866 126.134 205.605 127.072 205.605H127.345C128.27 205.605 128.732 205.866 128.732 206.387V229.297C128.732 229.805 128.27 230.059 127.345 230.059H127.072ZM155.087 230.059C154.279 230.059 153.817 229.876 153.7 229.512L145.751 206.66C145.673 206.504 145.634 206.354 145.634 206.211C145.634 206.029 145.757 205.885 146.005 205.781C146.265 205.664 146.643 205.605 147.137 205.605H147.45C148.244 205.605 148.707 205.794 148.837 206.172L155.262 224.707L155.614 226.523H155.712L156.102 224.668L162.509 206.172C162.652 205.794 163.121 205.605 163.915 205.605H164.11C165.113 205.605 165.614 205.807 165.614 206.211C165.614 206.341 165.575 206.504 165.497 206.699L157.548 229.512C157.43 229.876 156.968 230.059 156.161 230.059H155.087ZM183.57 230C183.206 230 182.939 229.915 182.77 229.746C182.6 229.577 182.516 229.316 182.516 228.965V206.738C182.516 206.374 182.6 206.113 182.77 205.957C182.939 205.788 183.206 205.703 183.57 205.703H195.68C195.927 205.703 196.103 205.781 196.207 205.938C196.324 206.094 196.383 206.361 196.383 206.738V207.305C196.383 207.656 196.324 207.917 196.207 208.086C196.103 208.255 195.927 208.34 195.68 208.34H185.582V216.25H194.645C194.892 216.25 195.068 216.335 195.172 216.504C195.289 216.673 195.348 216.94 195.348 217.305V217.832C195.348 218.197 195.289 218.464 195.172 218.633C195.068 218.789 194.892 218.867 194.645 218.867H185.582V227.363H195.719C195.966 227.363 196.142 227.448 196.246 227.617C196.363 227.773 196.422 228.034 196.422 228.398V228.965C196.422 229.316 196.363 229.577 196.246 229.746C196.142 229.915 195.966 230 195.719 230H183.57Z" fill="white"/>
<defs>
<clipPath id="clip0_103_1220">
<rect width="218" height="194" fill="white"/>
</clipPath>
</defs>
</svg>
