<svg width="1789" height="1123" viewBox="0 0 1789 1123" fill="none" xmlns="http://www.w3.org/2000/svg">
<g clip-path="url(#clip0_113_2)">
<path d="M1755.26 280.935H1587.63L1503.82 136H1671.45L1755.26 280.935Z" stroke="#B8B8B8" stroke-miterlimit="10" stroke-linejoin="round"/>
<path d="M1755.26 280.935H1587.63L1503.82 426.109H1671.45L1755.26 280.935Z" stroke="#B8B8B8" stroke-miterlimit="10" stroke-linejoin="round"/>
<path d="M1537.96 195.216H1637.06L1686.73 280.935L1637.06 366.893H1537.96L1488.29 280.935L1537.96 195.216Z" fill="black"/>
<path d="M1503.82 136H1671.45L1755.26 280.935L1671.45 426.108H1503.82L1420 280.935L1503.82 136Z" stroke="#B8B8B8" stroke-miterlimit="10" stroke-linejoin="round"/>
<path d="M1671.45 136L1587.63 280.935L1671.45 426.108L1755.26 280.935L1671.45 136Z" stroke="#B8B8B8" stroke-miterlimit="10" stroke-linejoin="round"/>
<path d="M1587.63 280.935H1420L1503.82 426.109H1671.45L1587.63 280.935Z" stroke="#B8B8B8" stroke-miterlimit="10" stroke-linecap="round" stroke-linejoin="round"/>
<path d="M1490.7 1183.76L1279.41 972.483C1275.92 968.995 1275.92 963.514 1279.41 960.524L1490.7 749.244C1494.19 745.756 1499.67 745.756 1502.66 749.244L1713.96 960.524C1717.45 964.012 1717.45 969.494 1713.96 972.483L1502.66 1183.76C1499.18 1187.25 1493.69 1187.25 1490.7 1183.76Z" stroke="black" stroke-width="1.7707" stroke-miterlimit="10"/>
<path d="M1501.17 683.966C1503.92 683.966 1506.15 681.735 1506.15 678.983C1506.15 676.231 1503.92 674 1501.17 674C1498.42 674 1496.19 676.231 1496.19 678.983C1496.19 681.735 1498.42 683.966 1501.17 683.966Z" fill="#8A8A8A"/>
<path d="M1559.48 737.783C1557.48 739.776 1554.49 739.776 1552.5 737.783C1550.51 735.79 1550.51 732.8 1552.5 730.807C1554.49 728.813 1557.48 728.813 1559.48 730.807C1561.47 732.302 1561.47 735.79 1559.48 737.783Z" fill="#8A8A8A"/>
<path d="M1614.29 792.596C1612.3 794.589 1609.31 794.589 1607.32 792.596C1605.32 790.602 1605.32 787.613 1607.32 785.619C1609.31 783.626 1612.3 783.626 1614.29 785.619C1616.29 787.114 1616.29 790.602 1614.29 792.596Z" fill="#8A8A8A"/>
<path d="M1669.11 847.409C1667.12 849.402 1664.13 849.402 1662.13 847.409C1660.14 845.416 1660.14 842.426 1662.13 840.433C1664.13 838.44 1667.12 838.44 1669.11 840.433C1671.1 841.928 1671.1 845.416 1669.11 847.409Z" fill="#8A8A8A"/>
<path d="M1720.44 903.717C1723.19 903.717 1725.42 901.486 1725.42 898.734C1725.42 895.982 1723.19 893.751 1720.44 893.751C1717.69 893.751 1715.46 895.982 1715.46 898.734C1715.46 901.486 1717.69 903.717 1720.44 903.717Z" fill="#8A8A8A"/>
<path d="M1455.32 731.803C1453.33 733.796 1450.34 733.796 1448.34 731.803C1446.35 729.81 1446.35 726.82 1448.34 724.827C1450.34 722.834 1453.33 722.834 1455.32 724.827C1457.31 726.82 1457.31 729.81 1455.32 731.803Z" fill="#8A8A8A"/>
<path d="M1506.65 788.111C1509.4 788.111 1511.63 785.88 1511.63 783.128C1511.63 780.376 1509.4 778.145 1506.65 778.145C1503.9 778.145 1501.67 780.376 1501.67 783.128C1501.67 785.88 1503.9 788.111 1506.65 788.111Z" fill="#8A8A8A"/>
<path d="M1561.47 842.925C1564.22 842.925 1566.45 840.694 1566.45 837.942C1566.45 835.19 1564.22 832.959 1561.47 832.959C1558.72 832.959 1556.49 835.19 1556.49 837.942C1556.49 840.694 1558.72 842.925 1561.47 842.925Z" fill="#8A8A8A"/>
<path d="M1616.29 897.738C1619.04 897.738 1621.27 895.507 1621.27 892.755C1621.27 890.003 1619.04 887.772 1616.29 887.772C1613.53 887.772 1611.3 890.003 1611.3 892.755C1611.3 895.507 1613.53 897.738 1616.29 897.738Z" fill="#8A8A8A"/>
<path d="M1671.6 952.552C1674.36 952.552 1676.59 950.321 1676.59 947.568C1676.59 944.816 1674.36 942.585 1671.6 942.585C1668.85 942.585 1666.62 944.816 1666.62 947.568C1666.62 950.321 1668.85 952.552 1671.6 952.552Z" fill="#8A8A8A"/>
<path d="M1406.48 780.636C1404.49 782.63 1401.5 782.63 1399.51 780.636C1397.51 778.643 1397.51 775.653 1399.51 773.66C1401.5 771.667 1404.49 771.667 1406.48 773.66C1408.48 775.653 1408.48 778.643 1406.48 780.636Z" fill="#8A8A8A"/>
<path d="M1457.81 836.945C1460.56 836.945 1462.8 834.714 1462.8 831.962C1462.8 829.21 1460.56 826.979 1457.81 826.979C1455.06 826.979 1452.83 829.21 1452.83 831.962C1452.83 834.714 1455.06 836.945 1457.81 836.945Z" fill="#8A8A8A"/>
<path d="M1512.63 891.758C1515.38 891.758 1517.61 889.527 1517.61 886.775C1517.61 884.023 1515.38 881.792 1512.63 881.792C1509.88 881.792 1507.65 884.023 1507.65 886.775C1507.65 889.527 1509.88 891.758 1512.63 891.758Z" fill="#8A8A8A"/>
<path d="M1567.45 946.571C1570.2 946.571 1572.43 944.34 1572.43 941.588C1572.43 938.836 1570.2 936.605 1567.45 936.605C1564.7 936.605 1562.46 938.836 1562.46 941.588C1562.46 944.34 1564.7 946.571 1567.45 946.571Z" fill="#8A8A8A"/>
<path d="M1625.75 999.889C1623.76 1001.88 1620.77 1001.88 1618.78 999.889C1616.78 997.896 1616.78 994.906 1618.78 992.913C1620.77 990.92 1623.76 990.92 1625.75 992.913C1627.75 994.906 1627.75 997.896 1625.75 999.889Z" fill="#8A8A8A"/>
<path d="M1357.65 829.47C1355.65 831.464 1352.66 831.464 1350.67 829.47C1348.68 827.477 1348.68 824.487 1350.67 822.494C1352.66 820.501 1355.65 820.501 1357.65 822.494C1359.64 824.487 1359.64 827.976 1357.65 829.47Z" fill="#8A8A8A"/>
<path d="M1412.46 884.782C1410.47 886.775 1407.48 886.775 1405.49 884.782C1403.49 882.789 1403.49 879.799 1405.49 877.806C1407.48 875.812 1410.47 875.812 1412.46 877.806C1414.46 879.3 1414.46 882.789 1412.46 884.782Z" fill="#8A8A8A"/>
<path d="M1463.79 941.09C1466.55 941.09 1468.78 938.859 1468.78 936.107C1468.78 933.355 1466.55 931.124 1463.79 931.124C1461.04 931.124 1458.81 933.355 1458.81 936.107C1458.81 938.859 1461.04 941.09 1463.79 941.09Z" fill="#8A8A8A"/>
<path d="M1522.1 994.409C1520.11 996.402 1517.12 996.402 1515.12 994.409C1513.13 992.415 1513.13 989.425 1515.12 987.432C1517.12 985.439 1520.11 985.439 1522.1 987.432C1524.09 988.927 1524.09 992.415 1522.1 994.409Z" fill="#8A8A8A"/>
<path d="M1576.92 1049.22C1574.93 1051.22 1571.94 1051.22 1569.94 1049.22C1567.95 1047.23 1567.95 1044.24 1569.94 1042.25C1571.94 1040.25 1574.93 1040.25 1576.92 1042.25C1578.91 1044.24 1578.91 1047.23 1576.92 1049.22Z" fill="#8A8A8A"/>
<path d="M1308.31 878.802C1306.32 880.796 1303.33 880.796 1301.33 878.802C1299.34 876.809 1299.34 873.819 1301.33 871.826C1303.33 869.833 1306.32 869.833 1308.31 871.826C1310.3 873.819 1310.3 876.809 1308.31 878.802Z" fill="#8A8A8A"/>
<path d="M1359.64 935.111C1362.39 935.111 1364.62 932.88 1364.62 930.128C1364.62 927.376 1362.39 925.145 1359.64 925.145C1356.89 925.145 1354.66 927.376 1354.66 930.128C1354.66 932.88 1356.89 935.111 1359.64 935.111Z" fill="#8A8A8A"/>
<path d="M1414.46 989.924C1417.21 989.924 1419.44 987.693 1419.44 984.941C1419.44 982.189 1417.21 979.958 1414.46 979.958C1411.71 979.958 1409.47 982.189 1409.47 984.941C1409.47 987.693 1411.71 989.924 1414.46 989.924Z" fill="#8A8A8A"/>
<path d="M1469.28 1044.74C1472.03 1044.74 1474.26 1042.51 1474.26 1039.75C1474.26 1037 1472.03 1034.77 1469.28 1034.77C1466.52 1034.77 1464.29 1037 1464.29 1039.75C1464.29 1042.51 1466.52 1044.74 1469.28 1044.74Z" fill="#8A8A8A"/>
<path d="M1528.08 1098.06C1526.09 1100.05 1523.1 1100.05 1521.1 1098.06C1519.11 1096.06 1519.11 1093.07 1521.1 1091.08C1523.1 1089.09 1526.09 1089.09 1528.08 1091.08C1529.57 1093.07 1529.57 1096.06 1528.08 1098.06Z" fill="#8A8A8A"/>
<path d="M1259.47 927.636C1257.48 929.629 1254.49 929.629 1252.5 927.636C1250.5 925.643 1250.5 922.653 1252.5 920.66C1254.49 918.666 1257.48 918.666 1259.47 920.66C1261.47 922.653 1261.47 925.643 1259.47 927.636Z" fill="#8A8A8A"/>
<path d="M1310.8 983.944C1313.55 983.944 1315.78 981.713 1315.78 978.961C1315.78 976.209 1313.55 973.978 1310.8 973.978C1308.05 973.978 1305.82 976.209 1305.82 978.961C1305.82 981.713 1308.05 983.944 1310.8 983.944Z" fill="#8A8A8A"/>
<path d="M1365.62 1038.76C1368.37 1038.76 1370.6 1036.53 1370.6 1033.77C1370.6 1031.02 1368.37 1028.79 1365.62 1028.79C1362.87 1028.79 1360.64 1031.02 1360.64 1033.77C1360.64 1036.53 1362.87 1038.76 1365.62 1038.76Z" fill="#8A8A8A"/>
<path d="M1420.44 1093.57C1423.19 1093.57 1425.42 1091.34 1425.42 1088.59C1425.42 1085.84 1423.19 1083.6 1420.44 1083.6C1417.69 1083.6 1415.45 1085.84 1415.45 1088.59C1415.45 1091.34 1417.69 1093.57 1420.44 1093.57Z" fill="#8A8A8A"/>
<path d="M84.2766 289.272L97.1696 302.479" stroke="#C6C6C6" stroke-width="1.1533" stroke-miterlimit="10" stroke-linecap="round" stroke-linejoin="round"/>
<path d="M39.6228 244.623L63.5223 268.834" stroke="#C6C6C6" stroke-width="1.1533" stroke-miterlimit="10" stroke-linecap="round" stroke-linejoin="round"/>
<path d="M79.874 247.767L170.125 337.696" stroke="#C6C6C6" stroke-width="1.1533" stroke-miterlimit="10" stroke-linecap="round" stroke-linejoin="round"/>
<path d="M33.9626 201.859L52.5162 220.096" stroke="#C6C6C6" stroke-width="1.1533" stroke-miterlimit="10" stroke-linecap="round" stroke-linejoin="round"/>
<path d="M144.653 274.808L223.899 354.047" stroke="black" stroke-width="1.1533" stroke-miterlimit="10" stroke-linecap="round" stroke-linejoin="round"/>
<path d="M25.1575 155.322L109.748 239.591" stroke="black" stroke-width="1.1533" stroke-miterlimit="10" stroke-linecap="round" stroke-linejoin="round"/>
<path d="M91.5093 183.936L231.132 323.547" stroke="#C6C6C6" stroke-width="1.1533" stroke-miterlimit="10" stroke-linecap="round" stroke-linejoin="round"/>
<path d="M33.6479 126.079L63.2075 155.636" stroke="#C6C6C6" stroke-width="1.1533" stroke-miterlimit="10" stroke-linecap="round" stroke-linejoin="round"/>
<path d="M206.917 261.602L240.25 295.247" stroke="#C6C6C6" stroke-width="1.1533" stroke-miterlimit="10" stroke-linecap="round" stroke-linejoin="round"/>
<path d="M0 55.0159L171.383 226.385" stroke="#C6C6C6" stroke-width="1.1533" stroke-miterlimit="10" stroke-linecap="round" stroke-linejoin="round"/>
<path d="M137.421 154.693L305.03 322.288" stroke="black" stroke-width="1.1533" stroke-miterlimit="10" stroke-linecap="round" stroke-linejoin="round"/>
<path d="M63.5217 80.8L102.515 119.79" stroke="black" stroke-width="1.1533" stroke-miterlimit="10" stroke-linecap="round" stroke-linejoin="round"/>
<path d="M170.126 149.662L278.302 257.829" stroke="#C6C6C6" stroke-width="1.1533" stroke-miterlimit="10" stroke-linecap="round" stroke-linejoin="round"/>
<path d="M59.7485 39.2939L139.623 119.161" stroke="#C6C6C6" stroke-width="1.1533" stroke-miterlimit="10" stroke-linecap="round" stroke-linejoin="round"/>
<path d="M259.118 201.23L315.722 257.829" stroke="black" stroke-width="1.1533" stroke-miterlimit="10" stroke-linecap="round" stroke-linejoin="round"/>
<path d="M108.49 50.6138L218.238 160.038" stroke="black" stroke-width="1.1533" stroke-miterlimit="10" stroke-linecap="round" stroke-linejoin="round"/>
<path d="M204.402 108.785L280.817 185.193" stroke="#C6C6C6" stroke-width="1.1533" stroke-miterlimit="10" stroke-linecap="round" stroke-linejoin="round"/>
<path d="M117.61 22L174.528 78.9133" stroke="#C6C6C6" stroke-width="1.1533" stroke-miterlimit="10" stroke-linecap="round" stroke-linejoin="round"/>
<path d="M272.326 138.971L301.886 168.842" stroke="black" stroke-width="1.1533" stroke-miterlimit="10" stroke-linecap="round" stroke-linejoin="round"/>
<path d="M163.207 29.8611L238.364 105.326" stroke="black" stroke-width="1.1533" stroke-miterlimit="10" stroke-linecap="round" stroke-linejoin="round"/>
<path d="M256.918 86.145L275.157 104.382" stroke="#C6C6C6" stroke-width="1.1533" stroke-miterlimit="10" stroke-linecap="round" stroke-linejoin="round"/>
<path d="M224.842 54.0728L237.421 66.6503" stroke="#C6C6C6" stroke-width="1.1533" stroke-miterlimit="10" stroke-linecap="round" stroke-linejoin="round"/>
<g clip-path="url(#clip1_113_2)">
<path d="M302.333 1029.89C309.244 1021.25 314.25 1014.21 319.835 1007.5C323.213 1003.64 327.031 999.317 336.28 1003.67C327.278 1018.23 320.163 1032.91 308.417 1045.97C303.57 1051.54 298.339 1051.87 290.531 1048.66C287.638 1047.51 285.186 1045.91 282.876 1044.54C270.323 1036.64 257.769 1028.74 245.364 1020.51C241.18 1017.87 237.001 1014.67 241.111 1010.24C244.78 1006.26 250.439 1006.62 255.355 1008.69C260.849 1011.09 265.611 1014.07 270.664 1016.93C274.128 1018.99 277.736 1021.28 282.663 1022.21C281.806 1020.84 280.948 1019.47 280.09 1018.1C270.514 1002.8 271.749 995.517 286.107 982.57C297.824 972.349 311.263 964.298 327.72 959.331C331.652 958.089 335.585 956.847 339.226 955.718C354.963 950.18 357.209 943.351 345.838 933.293C340.082 928.151 332.719 923.915 326.23 919.34C306.182 905.841 304.124 893.873 319.396 876.599C330.851 863.644 345.186 852.975 362.689 845.049C368.085 842.672 373.772 840.181 378.448 837.232C386.193 832.241 386.381 827.913 378.441 823.334C370.215 818.298 360.96 814.512 351.854 810.386C345.64 807.406 338.838 805.223 332.772 801.902C320.499 795.032 313.479 785.557 316.359 773.375C318.627 764.267 321.914 755.049 325.777 746.173C328.303 740.37 333.722 735.714 344.903 735.632C343.857 738.591 342.817 740.98 341.92 743.598C338.342 752.93 334.764 762.262 332.056 771.824C329.495 781.045 335.092 787.668 345.067 792.025C353.888 795.695 363.005 798.683 371.534 802.466C379.194 806.019 387.146 809.459 393.343 814.147C407.183 824.097 406.612 837.653 391.853 847.067C385.131 851.378 377.255 855.001 369.526 858.283C354.213 865.076 342.067 874.612 332.373 885.749C324.439 895.069 325.411 899.515 335.793 906.835C344.299 912.897 353.537 918.391 360.728 925.246C365.622 929.589 368.755 935.75 370.293 941.678C373.095 951.939 367.35 960.126 355.541 964.992C349.128 967.48 342.28 969.853 335.295 971.429C319.284 975.371 307.149 983.768 296.311 993.079C291.184 997.622 289.104 1002.4 292.963 1008.56C296.822 1014.73 298.789 1021.34 302.333 1029.89Z" fill="white"/>
</g>
<g opacity="0.28">
<path d="M906.841 690.288L660.353 443.82C657.216 440.683 657.216 435.453 660.353 431.967L906.841 185.5C909.979 182.363 915.209 182.363 918.695 185.5L1165.18 431.967C1168.32 435.105 1168.32 440.334 1165.18 443.82L918.695 690.288C915.209 693.425 909.979 693.425 906.841 690.288Z" fill="#D9D9D9" fill-opacity="0.3"/>
<path d="M908.933 388.74L758.321 238.141C756.229 236.049 756.229 232.912 758.321 230.82L908.933 80.5687C911.025 78.4771 914.162 78.4771 916.254 80.5687L1066.87 231.168C1068.96 233.26 1068.96 236.397 1066.87 238.489L916.254 389.089C914.162 390.832 911.025 390.832 908.933 388.74Z" stroke="black" stroke-width="2" stroke-miterlimit="10"/>
</g>
</g>
<defs>
<clipPath id="clip0_113_2">
<rect width="1789" height="1123" fill="white"/>
</clipPath>
<clipPath id="clip1_113_2">
<rect width="329.438" height="377.548" fill="white" transform="translate(495.544 732) rotate(89.7388)"/>
</clipPath>
</defs>
</svg>
