<svg width="1910" height="878" viewBox="0 0 1910 878" fill="none" xmlns="http://www.w3.org/2000/svg">
<path fill-rule="evenodd" clip-rule="evenodd" d="M581.167 89.2483C576.197 89.2483 572.167 93.2777 572.167 98.2483V773.576C572.167 778.547 576.197 782.576 581.167 782.576H1762.01C1766.98 782.576 1771.01 778.547 1771.01 773.576V98.2483C1771.01 93.2777 1766.98 89.2483 1762.01 89.2483H581.167ZM597.284 98.4481C591.761 98.4481 587.284 102.925 587.284 108.448V760.868C587.284 766.391 591.761 770.868 597.284 770.868H1746.34C1751.87 770.868 1756.34 766.391 1756.34 760.868V108.448C1756.34 102.925 1751.87 98.4481 1746.34 98.4481H597.284ZM1305 240C1305 235.582 1308.58 232 1313 232H1676C1680.42 232 1684 235.582 1684 240V631C1684 635.418 1680.42 639 1676 639H1313C1308.58 639 1305 635.418 1305 631V240ZM1501.65 284.428C1498.97 274.598 1485.03 274.598 1482.35 284.428L1458.53 371.878C1457.35 376.23 1453.4 379.25 1448.89 379.25H1368.54C1359.28 379.25 1354.99 390.744 1361.99 396.807L1429.85 455.631C1432.76 458.149 1433.96 462.107 1432.95 465.816L1407.77 558.289C1405.17 567.822 1416.5 574.944 1423.96 568.473L1485.45 515.178C1489.21 511.92 1494.79 511.92 1498.55 515.178L1560.04 568.473C1567.5 574.944 1578.83 567.822 1576.23 558.289L1551.05 465.816C1550.04 462.107 1551.24 458.149 1554.15 455.631L1622.01 396.807C1629.01 390.744 1624.72 379.25 1615.46 379.25H1535.11C1530.6 379.25 1526.65 376.23 1525.47 371.878L1501.65 284.428ZM681.772 389.963C681.772 387.202 684.011 384.963 686.772 384.963H1159.76C1162.53 384.963 1164.76 387.202 1164.76 389.963C1164.76 392.725 1162.53 394.963 1159.76 394.963H686.772C684.011 394.963 681.772 392.725 681.772 389.963ZM686.772 421.335C684.011 421.335 681.772 423.574 681.772 426.335C681.772 429.096 684.011 431.335 686.772 431.335H1159.76C1162.53 431.335 1164.76 429.096 1164.76 426.335C1164.76 423.574 1162.53 421.335 1159.76 421.335H686.772ZM681.772 465.132C681.772 462.37 684.011 460.132 686.772 460.132H1159.76C1162.53 460.132 1164.76 462.37 1164.76 465.132C1164.76 467.893 1162.53 470.132 1159.76 470.132H686.772C684.011 470.132 681.772 467.893 681.772 465.132ZM686.772 496.503C684.011 496.503 681.772 498.742 681.772 501.503C681.772 504.265 684.011 506.503 686.772 506.503H1159.76C1162.53 506.503 1164.76 504.265 1164.76 501.503C1164.76 498.742 1162.53 496.503 1159.76 496.503H686.772ZM680.101 300.096C680.101 294.573 684.578 290.096 690.101 290.096H892.377C897.9 290.096 902.377 294.573 902.377 300.096C902.377 305.619 897.9 310.096 892.377 310.096H690.101C684.578 310.096 680.101 305.619 680.101 300.096ZM1037.3 593.963C1032.33 593.963 1028.3 597.992 1028.3 602.963C1028.3 607.933 1032.33 611.963 1037.3 611.963H1155.13C1160.1 611.963 1164.13 607.933 1164.13 602.963C1164.13 597.992 1160.1 593.963 1155.13 593.963H1037.3Z" fill="white"/>
<line x1="1037.54" y1="616.99" x2="1156.36" y2="616.99" stroke="#FF8A00" stroke-width="5" stroke-linecap="round"/>
<line x1="1728.14" y1="806.5" x2="1838.5" y2="806.5" stroke="#FF8A00" stroke-width="5" stroke-linecap="round"/>
<line x1="1795.7" y1="875.5" x2="1795.7" y2="744.5" stroke="#FF8A00" stroke-width="5" stroke-linecap="round"/>
<line x1="686.966" y1="315.07" x2="895.766" y2="315.07" stroke="#FF8A00" stroke-width="5" stroke-linecap="round"/>
<line x1="2.5" y1="-2.5" x2="101.5" y2="-2.5" transform="matrix(0.258819 0.965926 -0.942643 0.333802 1502.76 277.8)" stroke="#FF8A00" stroke-width="5" stroke-linecap="round"/>
<line x1="2.5" y1="-2.5" x2="102.728" y2="-2.5" transform="matrix(0.249118 0.968473 -0.946318 0.323237 1552.97 461.293)" stroke="#FF8A00" stroke-width="5" stroke-linecap="round"/>
<path fill-rule="evenodd" clip-rule="evenodd" d="M107.756 85.5737C89.5307 85.5737 74.7561 100.348 74.7561 118.574V819C74.7561 837.225 89.5307 852 107.756 852H488.317C506.542 852 521.317 837.225 521.317 819V118.574C521.317 100.348 506.542 85.5737 488.317 85.5737H107.756ZM105.601 100.706C95.6602 100.706 87.6013 108.765 87.6013 118.706V818.867C87.6013 828.808 95.6602 836.867 105.601 836.867H491.227C501.168 836.867 509.227 828.808 509.227 818.867V118.706C509.227 108.765 501.168 100.706 491.227 100.706H105.601ZM297.25 183.66C300.121 174.198 313.518 174.198 316.389 183.66L333.935 241.492C335.214 245.707 339.099 248.588 343.504 248.588H401.666C411.186 248.588 415.32 260.634 407.806 266.481L359.6 303.99C356.333 306.532 354.97 310.824 356.172 314.785L374.303 374.545C377.135 383.88 366.292 391.332 358.592 385.341L312.961 349.835C309.349 347.025 304.29 347.025 300.679 349.835L255.047 385.341C247.348 391.332 236.505 383.88 239.337 374.545L257.468 314.785C258.67 310.824 257.306 306.532 254.039 303.99L205.833 266.481C198.319 260.634 202.453 248.588 211.974 248.588H270.135C274.54 248.588 278.426 245.707 279.705 241.492L297.25 183.66ZM132.648 530.445C129.887 530.445 127.648 532.683 127.648 535.445C127.648 538.206 129.887 540.445 132.648 540.445H462.669C465.43 540.445 467.669 538.206 467.669 535.445C467.669 532.683 465.43 530.445 462.669 530.445H132.648ZM127.648 557.699C127.648 554.937 129.887 552.699 132.648 552.699H462.669C465.43 552.699 467.669 554.937 467.669 557.699C467.669 560.46 465.43 562.699 462.669 562.699H132.648C129.887 562.699 127.648 560.46 127.648 557.699ZM132.648 574.953C129.887 574.953 127.648 577.191 127.648 579.953C127.648 582.714 129.887 584.953 132.648 584.953H462.669C465.43 584.953 467.669 582.714 467.669 579.953C467.669 577.191 465.43 574.953 462.669 574.953H132.648ZM127.648 602.206C127.648 599.445 129.887 597.206 132.648 597.206H462.669C465.43 597.206 467.669 599.445 467.669 602.206C467.669 604.968 465.43 607.206 462.669 607.206H132.648C129.887 607.206 127.648 604.968 127.648 602.206ZM136.87 467.48C131.347 467.48 126.87 471.957 126.87 477.48C126.87 483.003 131.347 487.48 136.87 487.48H273.325C278.848 487.48 283.325 483.003 283.325 477.48C283.325 471.957 278.848 467.48 273.325 467.48H136.87ZM112.536 133.631C112.536 129.213 116.118 125.631 120.536 125.631H475.537C479.955 125.631 483.537 129.213 483.537 133.631V424.735C483.537 429.154 479.955 432.735 475.537 432.735H120.536C116.118 432.735 112.536 429.154 112.536 424.735V133.631ZM259.422 668.524C254.451 668.524 250.422 672.554 250.422 677.524C250.422 682.495 254.451 686.524 259.422 686.524H337.576C342.546 686.524 346.576 682.495 346.576 677.524C346.576 672.554 342.546 668.524 337.576 668.524H259.422Z" fill="white"/>
<line x1="270.488" y1="691.419" x2="340.377" y2="691.419" stroke="#FF8A00" stroke-width="5" stroke-linecap="round"/>
<line x1="38.5" y1="147.5" x2="38.5" y2="2.5" stroke="#FF8A00" stroke-width="5" stroke-linecap="round"/>
<line x1="2.5" y1="56.5" x2="123.5" y2="56.5" stroke="#FF8A00" stroke-width="5" stroke-linecap="round"/>
<line x1="139.201" y1="493.562" x2="273.809" y2="493.562" stroke="#FF8A00" stroke-width="5" stroke-linecap="round"/>
<line x1="2.5" y1="-2.5" x2="68.6922" y2="-2.5" transform="matrix(0.288339 0.957528 -0.957525 0.28835 316.065 178.008)" stroke="#FF8A00" stroke-width="5" stroke-linecap="round"/>
<line x1="2.5" y1="-2.5" x2="69.6168" y2="-2.5" transform="matrix(0.288339 0.957528 -0.957525 0.28835 356.746 311.147)" stroke="#FF8A00" stroke-width="5" stroke-linecap="round"/>
</svg>
