<svg width="256" height="256" viewBox="0 0 256 256" fill="none" xmlns="http://www.w3.org/2000/svg">
<path d="M96.4465 7.38243C128.714 -0.89292 164.376 3.92941 192.833 21.4922C228.673 42.9248 252.071 83.468 252.666 125.202C253.976 167.353 232.007 209.146 196.703 232.067C157.41 258.501 103.055 259.513 62.9284 234.389C22.0279 209.98 -1.8456 160.744 4.28649 113.474C9.22789 63.5238 47.8065 19.468 96.4465 7.38243Z" fill="#010101"/>
<path d="M91.5051 27.803C152.469 3.39367 227.245 48.4616 233.555 113.831C243.379 172.651 194.56 232.424 134.966 234.151C78.2884 239.807 23.5163 191.762 21.9088 134.847C17.6818 88.7667 48.0446 43.0439 91.5051 27.803Z" fill="white"/>
<path d="M97.6372 121.69C124.964 99.364 151.695 76.2644 179.617 54.5938C164.971 77.0979 149.909 99.3045 135.263 121.809C122.701 121.868 110.14 121.868 97.6372 121.69Z" fill="#010101"/>
<path d="M120.737 134.132C133.358 134.132 145.92 134.132 158.482 134.311C130.977 156.517 104.365 179.796 76.3833 201.407C91.0289 178.903 106.091 156.637 120.737 134.132Z" fill="#010101"/>
</svg>
